<svg width="246" height="80" viewBox="0 0 246 80" fill="none" xmlns="http://www.w3.org/2000/svg">
<path fill-rule="evenodd" clip-rule="evenodd" d="M33.6525 0C20.5137 0 9.1878 9.24234 6.55285 22.1142L1.50138 46.7909C-2.00957 63.942 11.0942 80 28.6011 80C41.7399 80 53.0658 70.7577 55.7008 57.8858L60.7522 33.2091C64.2632 16.058 51.1594 0 33.6525 0ZM39.5973 8.65923C39.5973 7.61963 38.7546 6.77687 37.715 6.77687C36.6754 6.77687 35.8326 7.61963 35.8326 8.65923L20.5855 71.3416C20.5855 72.3812 21.4283 73.2239 22.4679 73.2239C23.5075 73.2239 24.3502 72.3812 24.3502 71.3416L39.5973 8.65923Z" fill="#FF4D4D"/>
<path d="M106.753 45.2174C105.662 45.2174 104.676 45.0739 103.796 44.787C102.915 44.5192 102.083 44.0793 101.298 43.4672C100.532 42.8551 99.7664 42.0518 99.0006 41.0572H98.7709L97.3639 44.6436H88.5487L97.9956 0H109.108L107.701 6.62768C107.471 7.81358 107.194 8.97079 106.868 10.0993C106.562 11.2087 106.256 12.2129 105.949 13.1119C105.643 13.9918 105.366 14.709 105.117 15.2637H105.346C105.863 14.6325 106.399 14.0396 106.954 13.4849C107.51 12.9111 108.18 12.452 108.964 12.1077C109.749 11.7443 110.745 11.5626 111.951 11.5626C113.616 11.5626 115.148 11.9547 116.545 12.7389C117.942 13.5231 119.062 14.8238 119.905 16.6409C120.747 18.4389 121.168 20.8777 121.168 23.9572C121.168 25.5448 120.986 27.2949 120.622 29.2077C120.259 31.1013 119.694 32.9949 118.928 34.8885C118.182 36.763 117.234 38.4845 116.086 40.053C114.937 41.6023 113.587 42.8551 112.037 43.8115C110.486 44.7488 108.725 45.2174 106.753 45.2174ZM104.054 36.2944C104.667 36.2944 105.26 36.0744 105.835 35.6345C106.409 35.1755 106.935 34.5634 107.414 33.7983C107.892 33.0141 108.314 32.1246 108.677 31.13C109.041 30.1354 109.319 29.0833 109.51 27.974C109.721 26.8454 109.826 25.7265 109.826 24.6171C109.826 23.2782 109.615 22.2548 109.194 21.5471C108.792 20.8394 108.18 20.4855 107.356 20.4855C106.782 20.4855 106.246 20.6673 105.748 21.0307C105.251 21.375 104.791 21.8532 104.37 22.4652C103.968 23.0582 103.604 23.7468 103.279 24.531C102.973 25.3152 102.705 26.1473 102.475 27.0271C102.264 27.8879 102.102 28.7677 101.987 29.6667C101.872 30.5466 101.815 31.3882 101.815 32.1916C101.815 33.4157 101.996 34.4104 102.36 35.1755C102.724 35.9214 103.289 36.2944 104.054 36.2944Z" fill="#FF4D4D"/>
<path d="M132.25 45.2174C129.513 45.2174 127.187 44.7009 125.273 43.6681C123.358 42.6352 121.894 41.1624 120.879 39.2496C119.884 37.3177 119.386 35.0224 119.386 32.3637C119.386 29.705 119.76 27.1323 120.506 24.6458C121.272 22.1592 122.42 19.9308 123.952 17.9607C125.502 15.9906 127.445 14.4317 129.781 13.284C132.116 12.1364 134.863 11.5626 138.022 11.5626C141.678 11.5626 144.54 12.385 146.607 14.03C148.694 15.675 149.737 17.8651 149.737 20.6003C149.737 22.3983 149.393 24.0337 148.704 25.5065C148.014 26.9602 146.952 28.213 145.516 29.2651C144.1 30.3171 142.291 31.13 140.089 31.7038C137.888 32.2585 135.275 32.5359 132.25 32.5359H130.556C130.556 32.6124 130.556 32.6889 130.556 32.7654C130.556 32.8228 130.556 32.8993 130.556 32.9949C130.556 34.4486 130.949 35.5198 131.733 36.2083C132.518 36.8969 133.696 37.2412 135.265 37.2412C136.912 37.2412 138.472 36.9926 139.946 36.4953C141.42 35.9979 144.366 34.6998 145.94 33.6232C145.94 33.6232 145.846 35.8876 146.271 38.0124C146.696 40.1373 147.265 41.0766 147.265 41.0766C144.705 42.4017 141.142 43.8785 139.285 44.414C137.428 44.9496 135.083 45.2174 132.25 45.2174ZM131.676 25.5926H132.509C134.174 25.5926 135.495 25.3726 136.471 24.9327C137.448 24.4928 138.146 23.9381 138.567 23.2686C138.989 22.5991 139.199 21.9297 139.199 21.2602C139.199 20.6481 139.008 20.1317 138.625 19.7109C138.242 19.2901 137.629 19.0797 136.787 19.0797C135.926 19.0797 135.131 19.4144 134.404 20.0839C133.676 20.7533 133.073 21.5949 132.595 22.6087C132.116 23.6033 131.81 24.598 131.676 25.5926Z" fill="#FF4D4D"/>
<path d="M156.219 45.2174C154.553 45.2174 153.012 44.8253 151.596 44.041C150.198 43.2568 149.078 41.9657 148.236 40.1677C147.394 38.3506 146.973 35.9023 146.973 32.8228C146.973 31.2352 147.155 29.4946 147.518 27.601C147.901 25.7073 148.466 23.8233 149.212 21.9488C149.978 20.0552 150.935 18.3241 152.084 16.7557C153.232 15.1872 154.582 13.9344 156.132 12.9971C157.702 12.0408 159.473 11.5626 161.445 11.5626C162.689 11.5626 163.77 11.7538 164.689 12.1364C165.627 12.5189 166.441 13.0545 167.13 13.7431C167.838 14.4126 168.451 15.2159 168.968 16.1532H169.197L170.719 12.1364H179.621L172.729 44.6436H163.857L164.144 41.1145H163.914C163.34 41.9179 162.698 42.6256 161.99 43.2377C161.282 43.8498 160.459 44.328 159.521 44.6723C158.602 45.0357 157.501 45.2174 156.219 45.2174ZM160.784 36.2944C161.626 36.2944 162.402 35.9119 163.11 35.1468C163.818 34.3625 164.421 33.3583 164.919 32.1342C165.436 30.91 165.809 29.5998 166.039 28.2035C166.154 27.6105 166.24 27.0176 166.297 26.4246C166.355 25.8125 166.383 25.21 166.383 24.6171C166.383 23.3738 166.182 22.3792 165.78 21.6332C165.398 20.8681 164.814 20.4855 164.029 20.4855C163.416 20.4855 162.823 20.7151 162.249 21.1741C161.693 21.6141 161.177 22.2261 160.698 23.0104C160.219 23.7755 159.798 24.6649 159.435 25.6787C159.09 26.6733 158.812 27.7253 158.602 28.8347C158.41 29.9441 158.315 31.063 158.315 32.1916C158.315 33.5114 158.516 34.5251 158.918 35.2328C159.339 35.9406 159.961 36.2944 160.784 36.2944Z" fill="#FF4D4D"/>
<path d="M174.142 44.6436L181.004 12.1364H189.877L189.532 16.6696H189.762C190.47 15.4454 191.255 14.4604 192.117 13.7144C192.978 12.9684 193.945 12.4233 195.017 12.079C196.108 11.7347 197.343 11.5626 198.721 11.5626C200.75 11.5626 202.387 11.9834 203.631 12.825C204.894 13.6666 205.823 14.7856 206.416 16.1819C207.01 17.5782 207.306 19.1179 207.306 20.8011C207.306 21.8723 207.239 22.9817 207.105 24.1293C206.971 25.2579 206.799 26.3386 206.589 27.3714L202.942 44.6436H191.829L195.534 26.9124C195.648 26.4151 195.763 25.7839 195.878 25.0188C195.993 24.2345 196.05 23.5077 196.05 22.8382C196.05 22.0157 195.84 21.4037 195.419 21.002C194.998 20.5812 194.49 20.3708 193.897 20.3708C193.169 20.3708 192.471 20.6768 191.801 21.2889C191.15 21.8818 190.547 22.8 189.992 24.0433C189.456 25.2674 188.987 26.8454 188.585 28.7773L185.254 44.6436H174.142Z" fill="#FF4D4D"/>
<path d="M81.2609 79.4267L88.1213 46.9501H96.991L96.4743 52.3676H96.7039C97.6033 50.8389 98.5219 49.6445 99.4596 48.7846C100.397 47.9056 101.431 47.2845 102.56 46.9214C103.708 46.5583 105.009 46.3768 106.463 46.3768C110.322 46.3768 112.317 46.5424 118.081 46.9501L106.349 57.5845C105.928 57.4125 105.411 57.2692 104.799 57.1546C104.186 57.0208 103.526 56.9539 102.818 56.9539C101.957 56.9539 101.144 57.0972 100.378 57.3839C99.6318 57.6514 98.9429 58.1005 98.3114 58.7311C97.699 59.3426 97.1441 60.1834 96.6465 61.2536C96.1681 62.3046 95.7567 63.604 95.4122 65.1519L92.3695 79.4267H81.2609Z" fill="#FF4D4D"/>
<path d="M111.192 80C109.182 80 107.546 79.5796 106.283 78.7388C105.02 77.8979 104.092 76.78 103.499 75.385C102.906 73.9901 102.609 72.4613 102.609 70.7988C102.609 69.7095 102.676 68.6012 102.81 67.4737C102.944 66.3271 103.116 65.2474 103.327 64.2346L106.972 46.9501H118.081L114.378 64.6359C114.263 65.1328 114.139 65.7634 114.005 66.5278C113.89 67.2922 113.832 68.0088 113.832 68.6776C113.832 69.4993 114.043 70.1204 114.464 70.5408C114.904 70.9421 115.421 71.1427 116.014 71.1427C116.665 71.1427 117.315 70.8465 117.966 70.2541C118.636 69.6617 119.258 68.7445 119.832 67.5024C120.425 66.2603 120.923 64.6742 121.324 62.7441L124.654 46.9501H135.763L128.902 79.4267H120.004L120.377 74.8977H120.147C119.439 76.1016 118.655 77.0858 117.794 77.8502C116.933 78.5954 115.957 79.1401 114.866 79.484C113.794 79.828 112.569 80 111.192 80Z" fill="#FF4D4D"/>
<path d="M130.285 79.4267L137.146 46.9501H146.015L145.671 51.479H145.901C146.609 50.256 147.393 49.2719 148.254 48.5266C149.116 47.7814 150.082 47.2367 151.154 46.8928C152.244 46.5488 153.479 46.3768 154.856 46.3768C156.885 46.3768 158.521 46.7972 159.765 47.638C161.028 48.4789 161.956 49.5968 162.549 50.9918C163.142 52.3867 163.439 53.9251 163.439 55.6067C163.439 56.6768 163.372 57.7852 163.238 58.9318C163.104 60.0592 162.932 61.1389 162.721 62.1708L159.076 79.4267H147.967L151.67 61.7122C151.785 61.2153 151.9 60.5847 152.015 59.8203C152.129 59.0369 152.187 58.3107 152.187 57.6419C152.187 56.8202 151.976 56.2086 151.555 55.8073C151.134 55.3869 150.627 55.1767 150.034 55.1767C149.307 55.1767 148.608 55.4825 147.939 56.094C147.288 56.6864 146.685 57.6036 146.13 58.8458C145.594 60.0688 145.126 61.6453 144.724 63.5754L141.394 79.4267H130.285Z" fill="#FF4D4D"/>
<path d="M160.388 79.4267L167.249 46.9501H176.118L175.774 51.479H176.004C176.712 50.256 177.496 49.2719 178.357 48.5266C179.219 47.7814 180.185 47.2367 181.257 46.8928C182.347 46.5488 183.582 46.3768 184.959 46.3768C186.988 46.3768 188.624 46.7972 189.868 47.638C191.131 48.4789 192.059 49.5968 192.652 50.9918C193.245 52.3867 193.542 53.9251 193.542 55.6067C193.542 56.6768 193.475 57.7852 193.341 58.9318C193.207 60.0592 193.035 61.1389 192.824 62.1708L189.179 79.4267H178.07L181.773 61.7122C181.888 61.2153 182.003 60.5847 182.118 59.8203C182.232 59.0369 182.29 58.3107 182.29 57.6419C182.29 56.8202 182.079 56.2086 181.658 55.8073C181.237 55.3869 180.73 55.1767 180.137 55.1767C179.41 55.1767 178.711 55.4825 178.042 56.094C177.391 56.6864 176.788 57.6036 176.233 58.8458C175.697 60.0688 175.229 61.6453 174.827 63.5754L171.497 79.4267H160.388Z" fill="#FF4D4D"/>
<path d="M205.102 80C202.365 80 200.04 79.484 198.127 78.4521C196.213 77.4202 194.749 75.9488 193.735 74.0378C192.74 72.1078 192.242 69.8146 192.242 67.1584C192.242 64.5022 192.615 61.9319 193.362 59.4477C194.127 56.9635 195.275 54.7372 196.806 52.7689C198.356 50.8007 200.299 49.2432 202.633 48.0967C204.968 46.9501 207.714 46.3768 210.872 46.3768C214.527 46.3768 217.387 47.1985 219.454 48.8419C221.54 50.4854 222.583 52.6734 222.583 55.4061C222.583 57.2023 222.239 58.8362 221.55 60.3076C220.861 61.76 219.799 63.0116 218.363 64.0627C216.947 65.1137 215.139 65.9258 212.938 66.4991C210.738 67.0533 208.125 67.3304 205.102 67.3304H203.408C203.408 67.4068 203.408 67.4833 203.408 67.5597C203.408 67.617 203.408 67.6935 203.408 67.789C203.408 69.2413 203.801 70.3115 204.585 70.9994C205.37 71.6874 206.547 72.0313 208.116 72.0313C209.762 72.0313 211.299 71.8012 212.772 71.3043C214.246 70.8075 216.002 70.1449 218.487 68.6542C217.786 71.8958 217.41 73.8256 216.665 77.5155C214.677 78.4265 213.309 78.8589 212.135 79.1974C210.278 79.7325 207.934 80 205.102 80ZM204.528 60.3936H205.36C207.025 60.3936 208.346 60.1739 209.322 59.7344C210.297 59.2948 210.996 58.7407 211.417 58.0718C211.838 57.403 212.048 56.7342 212.048 56.0653C212.048 55.4538 211.857 54.9379 211.474 54.5175C211.092 54.0971 210.479 53.8868 209.637 53.8868C208.776 53.8868 207.982 54.2213 207.255 54.8901C206.528 55.5589 205.925 56.3997 205.446 57.4126C204.968 58.4062 204.662 59.3999 204.528 60.3936Z" fill="#FF4D4D"/>
<path d="M217.571 79.4267L224.432 46.9501H233.302L232.785 52.3676H233.015C233.914 50.8389 234.832 49.6445 235.77 48.7846C236.708 47.9056 237.741 47.2845 238.87 46.9214C240.018 46.5583 241.32 46.3768 242.774 46.3768C243.195 46.3768 243.635 46.4055 244.094 46.4628C244.573 46.501 244.898 46.5488 245.07 46.6061L242.659 57.5845C242.238 57.4125 241.722 57.2692 241.109 57.1546C240.497 57.0208 239.837 56.9539 239.129 56.9539C238.267 56.9539 237.454 57.0972 236.689 57.3839C235.942 57.6514 235.253 58.1005 234.622 58.7311C234.01 59.3426 233.455 60.1834 232.957 61.2536C232.479 62.3046 232.067 63.604 231.723 65.1519L228.68 79.4267H217.571Z" fill="#FF4D4D"/>
</svg>
