<svg width="150" height="31" viewBox="0 0 150 31" fill="none" xmlns="http://www.w3.org/2000/svg">
<g clip-path="url(#clip0_3_61)">
<path d="M13.4454 8.47905V6.32762H17.0526V22.1144C17.0526 26.8596 13.2876 30.5613 8.51017 30.5613C5.3775 30.5613 2.68929 28.9799 1.2024 26.544L4.08171 24.5504C4.84072 26.2584 6.45429 27.3341 8.51125 27.3341C11.4217 27.3341 13.4464 25.2149 13.4464 22.1144V20.0575C12.1496 21.7344 10.2515 22.6523 8.10007 22.6523C3.60719 22.6523 0 18.9506 0 14.2677C0 9.58482 3.60719 5.82089 8.099 5.82089C10.2504 5.82089 12.1485 6.76993 13.4454 8.47797V8.47905ZM8.54131 19.4251C11.4206 19.4251 13.4454 17.3371 13.4454 14.2677C13.4454 11.1984 11.4206 9.04804 8.54131 9.04804C5.662 9.04804 3.60612 11.1673 3.60612 14.2677C3.60612 17.3682 5.63086 19.4251 8.54131 19.4251Z" fill="black"/>
<path d="M30.7813 5.82089C34.7675 5.82089 36.7289 7.05442 38.2158 9.04804L35.3365 11.0406C34.7353 9.7115 32.8372 9.04804 30.7803 9.04804C29.7045 9.04804 27.8698 9.39587 27.8698 10.4716C27.8698 12.5597 39.1326 11.2939 39.1326 17.2737C39.1326 20.6909 35.7788 22.6523 31.5393 22.6523C27.5853 22.6523 24.706 21.0699 23.2191 18.6339L26.0984 16.6403C27.2375 18.1272 28.7877 19.4251 31.5403 19.4251C34.293 19.4251 35.4954 18.5072 35.4954 17.6216C35.4954 14.4577 24.2637 16.5147 24.2637 10.5671C24.2637 8.03674 26.7318 5.82197 30.7813 5.82197V5.82089Z" fill="black"/>
<path d="M39.9238 14.2055C39.9238 9.52362 43.531 5.82196 48.0228 5.82196C50.1743 5.82196 52.0723 6.73986 53.3692 8.4157V6.32761H56.9764V30.0556H53.3692V19.9952C52.0723 21.7033 50.1743 22.6523 48.0228 22.6523C43.531 22.6523 39.9238 18.9506 39.9238 14.2055ZM48.4662 19.4251C51.3455 19.4251 53.3703 17.2737 53.3703 14.2055C53.3703 11.1372 51.3455 9.04911 48.4662 9.04911C45.5869 9.04911 43.531 11.1372 43.531 14.2055C43.531 17.2737 45.5558 19.4251 48.4662 19.4251Z" fill="black"/>
<path d="M72.0654 22.1456V20.3742C70.8319 21.7666 68.9649 22.6523 66.529 22.6523C62.3528 22.6523 59.5057 19.4563 59.5057 15.439V6.32761H63.1118V15.439C63.1118 17.5904 64.7566 19.5207 67.6047 19.5207C70.4529 19.5207 72.0654 17.5904 72.0654 15.439V6.32761H75.6715V22.1456H72.0654Z" fill="black"/>
<path d="M90.6982 8.47905V6.32762H94.3054V22.1456H90.6982V20.0575C89.4014 21.7344 87.5033 22.6523 85.3519 22.6523C80.859 22.6523 77.2529 18.9506 77.2529 14.2677C77.2529 9.58482 80.859 5.82089 85.3519 5.82089C87.5033 5.82089 89.4014 6.76993 90.6982 8.47797V8.47905ZM85.7942 19.4251C88.6735 19.4251 90.6982 17.3371 90.6982 14.2677C90.6982 11.1984 88.6735 9.04804 85.7942 9.04804C82.9149 9.04804 80.859 11.1673 80.859 14.2677C80.859 17.3682 82.8837 19.4251 85.7942 19.4251Z" fill="black"/>
<path d="M100.442 6.32761V8.13121C101.612 6.64431 103.195 5.82196 104.745 5.82196C106.485 5.82196 107.909 6.80213 108.51 7.49887L106.485 10.2826C106.011 9.74478 105.219 9.04911 103.955 9.04911C102.151 9.04911 100.443 10.5993 100.443 13.6676V22.1456H96.8369V6.32761H100.443H100.442Z" fill="black"/>
<path d="M115.943 5.82089C120.721 5.82089 124.453 9.52255 124.453 14.2044C124.453 14.4255 124.453 14.6156 124.421 14.8367H111.039C111.293 17.5893 113.222 19.4241 115.943 19.4241C118 19.4241 119.613 18.3484 120.373 16.6392L123.252 18.6329C121.765 21.0688 119.076 22.6512 115.944 22.6512C111.167 22.6512 107.402 18.9496 107.402 14.2044C107.402 9.45921 111.167 5.82089 115.944 5.82089H115.943ZM120.436 11.9896C119.708 10.186 118.064 9.04804 115.943 9.04804C113.823 9.04804 112.147 10.1871 111.419 11.9896H120.435H120.436Z" fill="black"/>
<path d="M139.163 8.47904V0H142.771V22.1456H139.163V20.0575C137.867 21.7344 135.968 22.6523 133.817 22.6523C129.324 22.6523 125.718 18.9506 125.718 14.2677C125.718 9.58482 129.324 5.82089 133.817 5.82089C135.968 5.82089 137.867 6.76992 139.163 8.47797V8.47904ZM134.259 19.4251C137.139 19.4251 139.163 17.3371 139.163 14.2677C139.163 11.1984 137.139 9.04803 134.259 9.04803C131.38 9.04803 129.324 11.1673 129.324 14.2677C129.324 17.3682 131.349 19.4251 134.259 19.4251Z" fill="black"/>
<path d="M150 17.4305H145.285V22.1456H150V17.4305Z" fill="#B32D2A"/>
</g>
<defs>
<clipPath id="clip0_3_61">
<rect width="150" height="30.5613" fill="white"/>
</clipPath>
</defs>
</svg>
