<svg width="340" height="166" viewBox="0 0 340 166" fill="none" xmlns="http://www.w3.org/2000/svg">
<path d="M160.1 60C160.1 55.8 159.3 50.9 152.6 50.9H145C144.8 50.9 144.7 51 144.7 51.2V80.4C144.7 80.6 144.8 80.7 145 80.7H149.9C150.1 80.7 150.2 80.6 150.2 80.4V69H152.6C159.3 69 160.1 64.2 160.1 60ZM150.3 64.3V55.5H152.3C154.4 55.5 154.8 56.6 154.8 59.9C154.8 63.2 154.4 64.3 152.3 64.3H150.3Z" fill="#044F3B"/>
<path d="M176.3 55.8C176.5 55.8 176.6 55.7 176.6 55.5V51.2C176.6 51 176.5 50.9 176.3 50.9H163.8C163.6 50.9 163.5 51 163.5 51.2V80.4C163.5 80.6 163.6 80.7 163.8 80.7H176.6C176.8 80.7 176.9 80.6 176.9 80.4V76.1C176.9 75.9 176.8 75.8 176.6 75.8H168.9V67.7H174.3C174.5 67.7 174.6 67.6 174.6 67.4V63.3C174.6 63.1 174.5 63 174.3 63H168.9V55.8H176.3Z" fill="#044F3B"/>
<path d="M195.2 50.9H180.2C180 50.9 179.9 51 179.9 51.2V55.5C179.9 55.7 180 55.8 180.2 55.8H185V80.4C185 80.6 185.1 80.7 185.3 80.7H190.1C190.3 80.7 190.4 80.6 190.4 80.4V55.9H195.2C195.4 55.9 195.5 55.8 195.5 55.6V51.3C195.5 51 195.4 50.9 195.2 50.9Z" fill="#044F3B"/>
<path d="M131.8 97.8H136.5C136.7 97.8 136.8 97.7 136.8 97.5V93.2C136.8 88.6 134 85.8 129.4 85.8C124.8 85.8 121.7 88.8 121.7 93.3V109.1C121.7 113.6 124.8 116.6 129.4 116.6C133.9 116.6 136.8 113.8 136.8 109.2V104.6C136.8 104.4 136.7 104.3 136.5 104.3H131.8C131.6 104.3 131.5 104.4 131.5 104.6V109.3C131.5 110.9 130.9 111.7 129.5 111.7C127.9 111.7 127.3 110.9 127.3 109.2V93.2C127.3 91.5 128 90.7 129.5 90.7C130.9 90.7 131.5 91.5 131.5 93.1V97.5C131.5 97.6 131.7 97.8 131.8 97.8Z" fill="#044F3B"/>
<path d="M146.7 115.8V86.6C146.7 86.4 146.6 86.3 146.4 86.3H141.6C141.4 86.3 141.3 86.4 141.3 86.6V115.8C141.3 116 141.4 116.1 141.6 116.1H146.4C146.6 116.1 146.7 116 146.7 115.8Z" fill="#044F3B"/>
<path d="M161.4 116.1H166.1C166.2 116.1 166.3 116.1 166.3 116C166.4 115.9 166.4 115.8 166.3 115.7L162.6 103.1C165.2 101.8 166.1 99.8 166.1 95.3C166.1 90.8 165.3 86.2 159 86.2H151.5C151.3 86.2 151.2 86.3 151.2 86.5V115.8C151.2 116 151.3 116.1 151.5 116.1H156.4C156.6 116.1 156.7 116 156.7 115.8V104H157.9L161.2 115.9C161.1 116 161.2 116.1 161.4 116.1ZM158.2 99.5H156.6V91H158.2C160.1 91 160.7 91.6 160.7 95.3C160.7 98.8 160.1 99.5 158.2 99.5Z" fill="#044F3B"/>
<path d="M184.4 108.8V104.2C184.4 104 184.3 103.9 184.1 103.9H179.4C179.2 103.9 179.1 104 179.1 104.2V108.9C179.1 110.5 178.5 111.3 177.1 111.3C175.5 111.3 174.9 110.5 174.9 108.8V92.8C174.9 91.1 175.6 90.3 177.1 90.3C178.5 90.3 179.1 91.1 179.1 92.7V97.1C179.1 97.3 179.2 97.4 179.4 97.4H184.1C184.3 97.4 184.4 97.3 184.4 97.1V92.8C184.4 88.2 181.6 85.4 177 85.4C172.4 85.4 169.3 88.4 169.3 92.9V108.7C169.3 113.2 172.4 116.2 177 116.2C181.6 116.2 184.4 113.3 184.4 108.8Z" fill="#044F3B"/>
<path d="M201.6 115.4V111.1C201.6 110.9 201.5 110.8 201.3 110.8H194.3V86.2C194.3 86 194.2 85.9 194 85.9H189.2C189 85.9 188.9 86 188.9 86.2V115.4C188.9 115.6 189 115.7 189.2 115.7H201.3C201.5 115.7 201.6 115.6 201.6 115.4Z" fill="#044F3B"/>
<path d="M217.9 90.7C218.1 90.7 218.2 90.6 218.2 90.4V86.1C218.2 85.9 218.1 85.8 217.9 85.8H205.4C205.2 85.8 205.1 85.9 205.1 86.1V115.3C205.1 115.5 205.2 115.6 205.4 115.6H218.2C218.4 115.6 218.5 115.5 218.5 115.3V111C218.5 110.8 218.4 110.7 218.2 110.7H210.5V102.6H215.9C216.1 102.6 216.2 102.5 216.2 102.3V98.2C216.2 98 216.1 97.9 215.9 97.9H210.5V90.7H217.9Z" fill="#044F3B"/>
<path d="M148.6 127.4H150.9C151 127.4 151 127.3 151 127.3V125.2C151 123 149.6 121.6 147.4 121.6C145.2 121.6 143.7 123.1 143.7 125.3V133C143.7 135.2 145.2 136.7 147.4 136.7C149.6 136.7 151 135.3 151 133.1V130.9C151 130.8 150.9 130.8 150.9 130.8H148.6C148.5 130.8 148.5 130.9 148.5 130.9V133.2C148.5 134 148.2 134.4 147.5 134.4C146.7 134.4 146.4 134 146.4 133.2V125.4C146.4 124.6 146.7 124.2 147.5 124.2C148.2 124.2 148.5 124.6 148.5 125.4V127.5C148.5 127.3 148.6 127.4 148.6 127.4Z" fill="#044F3B"/>
<path d="M152.8 125.2V132.9C152.8 135.1 154.3 136.6 156.5 136.6C158.8 136.6 160.2 135.2 160.2 132.9V125.2C160.2 123 158.7 121.5 156.5 121.5C154.2 121.6 152.8 123 152.8 125.2ZM157.5 125.1V132.9C157.5 133.7 157.2 134.1 156.4 134.1C155.7 134.1 155.3 133.7 155.3 132.9V125.1C155.3 124.3 155.6 123.9 156.4 123.9C157.2 123.9 157.5 124.3 157.5 125.1Z" fill="#044F3B"/>
<path d="M169.5 136.3H171.6C171.7 136.3 171.7 136.2 171.7 136.2V122C171.7 121.9 171.6 121.9 171.6 121.9H168.5C168.4 121.9 168.4 122 168.4 122L166.9 130.1L165.4 122C165.4 121.9 165.3 121.9 165.3 121.9H162.2C162.1 121.9 162.1 122 162.1 122V136.2C162.1 136.3 162.2 136.3 162.2 136.3H164.3C164.4 136.3 164.4 136.2 164.4 136.2V127.1L166.1 136.2C166.1 136.3 166.2 136.3 166.2 136.3H167.5C167.6 136.3 167.6 136.2 167.6 136.2L169.3 127V136.2C169.4 136.2 169.4 136.3 169.5 136.3Z" fill="#044F3B"/>
<path d="M138.5 134.5C138.5 135.5 139.3 136.3 140.3 136.3C141.3 136.3 142.1 135.5 142.1 134.5C142.1 133.5 141.3 132.7 140.3 132.7C139.3 132.6 138.5 133.5 138.5 134.5Z" fill="#044F3B"/>
<path d="M174 134.5C174 135.5 174.8 136.3 175.8 136.3C176.8 136.3 177.6 135.5 177.6 134.5C177.6 133.5 176.8 132.7 175.8 132.7C174.8 132.6 174 133.5 174 134.5Z" fill="#044F3B"/>
<path d="M179.8 136.3H182.1C182.2 136.3 182.2 136.2 182.2 136.2L182.6 133.4H184.7L185.1 136.2C185.1 136.3 185.2 136.3 185.2 136.3H187.5C187.5 136.3 187.6 136.3 187.6 136.2V136.1L185.1 121.9C185.1 121.8 185 121.8 185 121.8H182.2C182.1 121.8 182.1 121.9 182.1 121.9L179.6 136.1V136.2C179.7 136.3 179.8 136.3 179.8 136.3ZM183.7 126.3L184.4 131H183L183.7 126.3Z" fill="#044F3B"/>
<path d="M191.5 121.8H189.1C189 121.8 189 121.9 189 121.9V132.8C189 135 190.5 136.5 192.7 136.5C195 136.5 196.4 135.1 196.4 132.8V121.9C196.4 121.8 196.3 121.8 196.3 121.8H193.9C193.8 121.8 193.8 121.9 193.8 121.9V132.9C193.8 133.7 193.5 134.1 192.7 134.1C192 134.1 191.6 133.7 191.6 132.9V121.9C191.7 121.9 191.6 121.8 191.5 121.8Z" fill="#044F3B"/>
<path d="M170.5 8.5C176.3 8.5 181 14.1 181.4 21.1C177.8 20.5 174.2 20.2 170.5 20.2C166.8 20.2 163.1 20.5 159.6 21.1C160 14.1 164.7 8.5 170.5 8.5ZM187.3 22.3C187.3 24.3 187 26.2 186.5 28.1C214.4 35.3 235.1 60.6 235.1 90.7C235.1 126.3 206.1 155.3 170.5 155.3C134.9 155.3 105.9 126.3 105.9 90.7C105.9 55.1 134.9 26.1 170.5 26.1C174 26.1 177.5 26.4 180.8 26.9C180.8 27.1 180.7 27.2 180.7 27.4C179.6 30.9 177.3 33.8 174.5 35.1C173.7 33.8 172.3 32.9 170.7 32.9C168.2 32.9 166.3 34.9 166.3 37.3C166.3 39.8 168.3 41.7 170.7 41.7C172 41.7 173.3 41.1 174.1 40.2C172.9 40.2 171.6 40 170.4 39.6C170.1 39.5 169.9 39.4 169.6 39.3C170 39.3 170.4 39.4 170.7 39.4C174.9 39.4 178.7 37.2 181.3 33.7C183.1 31.2 184.4 28.1 184.8 24.7C185.3 20.3 184.4 15.7 182 11.9C179.5 7.9 175.3 5 170.5 5C162.7 5 156.3 12.5 156 21.7C124.1 28.4 100 56.7 100 90.6C100 129.4 131.6 161 170.4 161C209.2 161 240.8 129.4 240.8 90.6C240.9 57.6 218 29.8 187.3 22.3Z" fill="#044F3B"/>
</svg>
