<svg width="251" height="55" viewBox="0 0 251 55" fill="none" xmlns="http://www.w3.org/2000/svg">
<path d="M239.289 20.7336V44.6669C239.289 47.3336 239.778 49.178 240.756 50.2003C241.733 51.178 243.467 51.6669 245.956 51.6669H250.022V54.3336H245.489C242.333 54.3336 240 53.6003 238.489 52.1336C237.022 50.6225 236.289 48.1336 236.289 44.6669V20.7336H230.822V18.1336H236.289V8.93359H239.289V18.1336H250.022V20.7336H239.289Z" fill="#19352D"/>
<path d="M229.138 20.8004H219.738V54.3337H216.738V20.8004H211.271V18.1337H216.738V15.6004C216.738 11.8226 217.694 9.02261 219.605 7.20039C221.516 5.33372 224.649 4.40039 229.005 4.40039V7.06705C225.538 7.06705 223.116 7.73372 221.738 9.06706C220.405 10.4004 219.738 12.5782 219.738 15.6004V18.1337H229.138V20.8004Z" fill="#19352D"/>
<path d="M204.873 10.0667C204.162 10.0667 203.562 9.84448 203.073 9.40003C202.584 8.91114 202.34 8.2667 202.34 7.4667C202.34 6.71115 202.584 6.08892 203.073 5.60003C203.562 5.11114 204.162 4.8667 204.873 4.8667C205.584 4.8667 206.184 5.11114 206.673 5.60003C207.162 6.08892 207.407 6.71115 207.407 7.4667C207.407 8.2667 207.162 8.91114 206.673 9.40003C206.184 9.84448 205.584 10.0667 204.873 10.0667ZM206.34 18.1334V54.3334H203.34V18.1334H206.34Z" fill="#19352D"/>
<path d="M181.205 17.4C185.471 17.4 188.96 18.7333 191.671 21.4C194.382 24.0222 195.738 27.9333 195.738 33.1333V54.3333H192.805V33.3333C192.805 29.0222 191.716 25.7333 189.538 23.4667C187.36 21.1556 184.405 20 180.671 20C176.76 20 173.627 21.2444 171.271 23.7333C168.96 26.2222 167.805 29.9111 167.805 34.8V54.3333H164.805V5H167.805V25.8C168.827 23.0889 170.538 21.0222 172.938 19.6C175.338 18.1333 178.094 17.4 181.205 17.4Z" fill="#19352D"/>
<path d="M146.733 54.867C142.689 54.867 139.378 53.9781 136.8 52.2003C134.267 50.4226 132.844 47.8892 132.533 44.6003H135.6C135.822 46.9559 136.889 48.8226 138.8 50.2003C140.755 51.5781 143.4 52.267 146.733 52.267C149.489 52.267 151.667 51.5781 153.267 50.2003C154.911 48.7781 155.733 47.0448 155.733 45.0003C155.733 43.5781 155.289 42.4226 154.4 41.5337C153.555 40.6003 152.489 39.8892 151.2 39.4003C149.911 38.9114 148.155 38.3781 145.933 37.8003C143.267 37.0892 141.111 36.4003 139.467 35.7337C137.822 35.0226 136.422 33.9781 135.267 32.6003C134.111 31.2226 133.533 29.3781 133.533 27.067C133.533 25.3781 134.044 23.8225 135.067 22.4003C136.089 20.9337 137.511 19.7781 139.333 18.9337C141.155 18.0892 143.222 17.667 145.533 17.667C149.311 17.667 152.355 18.6226 154.667 20.5337C157.022 22.4003 158.289 25.0003 158.467 28.3337H155.467C155.333 25.9337 154.4 23.9781 152.667 22.467C150.933 20.9559 148.533 20.2003 145.467 20.2003C142.889 20.2003 140.755 20.867 139.067 22.2003C137.378 23.5337 136.533 25.1559 136.533 27.067C136.533 28.7559 137 30.1337 137.933 31.2003C138.911 32.2226 140.089 33.0225 141.467 33.6003C142.889 34.1337 144.755 34.7114 147.067 35.3337C149.6 36.0003 151.622 36.667 153.133 37.3337C154.689 37.9559 156 38.8892 157.067 40.1337C158.133 41.3337 158.667 42.9559 158.667 45.0003C158.667 46.867 158.155 48.5559 157.133 50.067C156.111 51.5781 154.689 52.7559 152.867 53.6003C151.044 54.4448 149 54.867 146.733 54.867Z" fill="#19352D"/> 25.1559 136.533 27.067C136.533 28.7559 137 30.1337 137.933 31.2003C138.911 32.2226 140.089 33.0225 141.467 33.6003C142.889 34.1337 144.755 34.7114 147.067 35.3337C149.6 36.0003 151.622 36.667 153.133 37.3337C154.689 37.9559 156 38.8892 157.067 40.1337C158.133 41.3337 158.667 42.9559 158.667 45.0003C158.667 46.867 158.155 48.5559 157.133 50.067C156.111 51.5781 154.689 52.7559 152.867 53.6003C151.044 54.4448 149 54.867 146.733 54.867Z" fill="#CFFF45"/>
<path d="M129.069 5V54.3333H116.002V8L129.069 5Z" fill="#19352D"/>
<path d="M110.561 11V54.3333H97.4941V14L110.561 11Z" fill="#19352D"/>
<path d="M85.5866 13.4667C83.2755 13.4667 81.4088 12.8444 79.9866 11.6C78.6088 10.3111 77.9199 8.71111 77.9199 6.8C77.9199 4.84445 78.6088 3.22222 79.9866 1.93334C81.4088 0.644445 83.2755 0 85.5866 0C87.8533 0 89.6755 0.644445 91.0533 1.93334C92.4755 3.22222 93.1866 4.84445 93.1866 6.8C93.1866 8.71111 92.4755 10.3111 91.0533 11.6C89.6755 12.8444 87.8533 13.4667 85.5866 13.4667ZM92.0533 16.9333V54.3333H78.9866V19.9333L92.0533 16.9333Z" fill="#19352D"/>
<path d="M61.2223 54.3333L50.8889 39V54.3333H37.8223V8L50.8889 5V31.6L59.2223 20H74.8889L62.1556 35.7333L77.1556 54.3333H61.2223Z" fill="#19352D"/>
<path d="M17.8667 54.8001C14.4889 54.8001 11.4667 54.2446 8.8 53.1335C6.17778 51.9779 4.08889 50.4224 2.53333 48.4668C1.02222 46.4668 0.177778 44.2224 0 41.7335H12.6667C12.8444 42.9335 13.4 43.8668 14.3333 44.5335C15.2667 45.2001 16.4222 45.5335 17.8 45.5335C18.8667 45.5335 19.7111 45.3112 20.3333 44.8668C20.9556 44.4224 21.2667 43.8446 21.2667 43.1335C21.2667 42.2001 20.7556 41.5112 19.7333 41.0668C18.7111 40.6224 17.0222 40.1335 14.6667 39.6001C12 39.0668 9.77778 38.4668 8 37.8001C6.22222 37.1335 4.66667 36.0446 3.33333 34.5335C2.04444 33.0224 1.4 30.9779 1.4 28.4001C1.4 26.1779 2 24.1779 3.2 22.4001C4.4 20.5779 6.15556 19.1335 8.46667 18.0668C10.8222 17.0001 13.6444 16.4668 16.9333 16.4668C21.8222 16.4668 25.6667 17.6668 28.4667 20.0668C31.2667 22.4668 32.8889 25.6224 33.3333 29.5335H21.5333C21.3111 28.3335 20.7778 27.4224 19.9333 26.8001C19.1333 26.1335 18.0444 25.8001 16.6667 25.8001C15.6 25.8001 14.7778 26.0001 14.2 26.4001C13.6667 26.8001 13.4 27.3557 13.4 28.0668C13.4 28.9557 13.9111 29.6446 14.9333 30.1335C15.9556 30.5779 17.6 31.0446 19.8667 31.5335C22.5778 32.1112 24.8222 32.7557 26.6 33.4668C28.4222 34.1779 30 35.3335 31.3333 36.9335C32.7111 38.489 33.4 40.6224 33.4 43.3335C33.4 45.5112 32.7556 47.4668 31.4667 49.2001C30.2222 50.9335 28.4222 52.3112 26.0667 53.3335C23.7556 54.3112 21.0222 54.8001 17.8667 54.8001Z" fill="#19352D"/>3.9111 29.6446 14.9333 30.1335C15.9556 30.5779 17.6 31.0446 19.8667 31.5335C22.5778 32.1112 24.8222 32.7557 26.6 33.4668C28.4222 34.1779 30 35.3335 31.3333 36.9335C32.7111 38.489 33.4 40.6224 33.4 43.3335C33.4 45.5112 32.7556 47.4668 31.4667 49.2001C30.2222 50.9335 28.4222 52.3112 26.0667 53.3335C23.7556 54.3112 21.0222 54.8001 17.8667 54.8001Z" fill="#CFFF45"/>
</svg>
