<svg width="100" height="100" viewBox="0 0 100 100" fill="none" xmlns="http://www.w3.org/2000/svg">
<g clip-path="url(#clip0_122_365)">
<rect width="100" height="100" rx="5" fill="#19352D"/>
<path d="M100 54V340H1V76.9412L100 54Z" fill="#CFFF45"/>
<path d="M14.2664 28.9406C23.396 36.9802 35.3785 41 50.214 41C64.7642 41 76.4614 36.9802 85.3057 28.9406C94.4352 20.6139 99 10.2772 99 -2.06931C99 -14.703 94.4352 -25.1832 85.3057 -33.5099C76.4614 -41.8366 64.7642 -46 50.214 -46C35.3785 -46 23.396 -41.8366 14.2664 -33.5099C5.42217 -25.1832 1 -14.703 1 -2.06931C1 10.2772 5.42217 20.6139 14.2664 28.9406Z" fill="#CFFF45"/>
</g>
<rect x="0.5" y="0.5" width="99" height="99" rx="4.5" stroke="#CFFF45"/>
<defs>
<clipPath id="clip0_122_365">
<rect width="100" height="100" rx="5" fill="white"/>
</clipPath>
</defs>
</svg>
